<svg xmlns="http://www.w3.org/2000/svg" xmlns:xlink="http://www.w3.org/1999/xlink" width="40" zoomAndPan="magnify" viewBox="0 0 30 30.000001" height="40" preserveAspectRatio="xMidYMid meet" version="1.0"><defs><clipPath id="349b6baba3"><path d="M 0.484375 0.289062 L 29.515625 0.289062 L 29.515625 29 L 0.484375 29 Z M 0.484375 0.289062 " clip-rule="nonzero"/></clipPath><clipPath id="aba47b2a42"><path d="M 0.484375 0.289062 L 29.515625 0.289062 L 29.515625 29.03125 L 0.484375 29.03125 Z M 0.484375 0.289062 " clip-rule="nonzero"/></clipPath></defs><g clip-path="url(#349b6baba3)"><path fill="#ffffff" d="M 26.019531 29 L 3.980469 29 C 2.226562 29 0.808594 27.578125 0.808594 25.828125 L 0.808594 3.785156 C 0.808594 2.035156 2.226562 0.613281 3.980469 0.613281 L 26.027344 0.613281 C 27.773438 0.613281 29.191406 2.035156 29.191406 3.785156 L 29.191406 25.835938 C 29.191406 27.578125 27.773438 29 26.019531 29 Z M 26.019531 29 " fill-opacity="1" fill-rule="nonzero"/></g><g clip-path="url(#aba47b2a42)"><path fill="#010101" d="M 26.019531 29.324219 L 3.980469 29.324219 C 2.050781 29.324219 0.484375 27.757812 0.484375 25.828125 L 0.484375 3.785156 C 0.484375 1.855469 2.050781 0.289062 3.980469 0.289062 L 26.027344 0.289062 C 27.949219 0.289062 29.515625 1.855469 29.515625 3.785156 L 29.515625 25.835938 C 29.515625 27.757812 27.949219 29.324219 26.019531 29.324219 Z M 3.980469 0.9375 C 2.40625 0.9375 1.132812 2.210938 1.132812 3.785156 L 1.132812 25.835938 C 1.132812 27.402344 2.40625 28.671875 3.980469 28.671875 L 26.027344 28.671875 C 27.59375 28.671875 28.875 27.402344 28.875 25.828125 L 28.875 3.785156 C 28.875 2.21875 27.601562 0.9375 26.039062 0.9375 Z M 3.980469 0.9375 " fill-opacity="1" fill-rule="nonzero"/></g><path fill="#0c0b0b" d="M 25.664062 7.863281 C 25.664062 6.300781 24.390625 5.027344 22.824219 5.027344 C 21.261719 5.027344 19.988281 6.300781 19.988281 7.863281 C 19.988281 9.429688 21.261719 10.703125 22.824219 10.703125 C 24.398438 10.703125 25.664062 9.4375 25.664062 7.863281 Z M 10.003906 21.738281 C 10.003906 20.175781 8.730469 18.902344 7.167969 18.902344 C 5.601562 18.902344 4.328125 20.175781 4.328125 21.738281 C 4.328125 23.304688 5.601562 24.578125 7.167969 24.578125 C 8.730469 24.578125 10.003906 23.3125 10.003906 21.738281 Z M 7.167969 10.703125 C 8.730469 10.703125 10.003906 9.429688 10.003906 7.863281 C 10.003906 6.300781 8.730469 5.027344 7.167969 5.027344 C 5.601562 5.027344 4.328125 6.300781 4.328125 7.863281 C 4.328125 9.429688 5.601562 10.703125 7.167969 10.703125 Z M 22.824219 24.578125 C 24.390625 24.578125 25.664062 23.304688 25.664062 21.738281 C 25.664062 20.175781 24.390625 18.902344 22.824219 18.902344 C 21.261719 18.902344 19.988281 20.175781 19.988281 21.738281 C 19.988281 23.304688 21.261719 24.578125 22.824219 24.578125 Z M 17.839844 7.863281 C 17.839844 6.300781 16.566406 5.027344 15 5.027344 C 13.433594 5.027344 12.160156 6.300781 12.160156 7.863281 C 12.160156 9.429688 13.433594 10.703125 15 10.703125 C 16.566406 10.703125 17.839844 9.4375 17.839844 7.863281 Z M 17.839844 21.738281 C 17.839844 20.175781 16.566406 18.902344 15 18.902344 C 13.433594 18.902344 12.160156 20.175781 12.160156 21.738281 C 12.160156 23.304688 13.433594 24.578125 15 24.578125 C 16.566406 24.578125 17.839844 23.3125 17.839844 21.738281 Z M 17.839844 21.738281 " fill-opacity="1" fill-rule="nonzero"/></svg>