<svg xmlns="http://www.w3.org/2000/svg" xmlns:xlink="http://www.w3.org/1999/xlink" width="40" zoomAndPan="magnify" viewBox="0 0 30 30.000001" height="40" preserveAspectRatio="xMidYMid meet" version="1.0"><defs><clipPath id="032286205a"><path d="M 0.484375 0 L 29.515625 0 L 29.515625 29 L 0.484375 29 Z M 0.484375 0 " clip-rule="nonzero"/></clipPath><clipPath id="8265d4d864"><path d="M 0.484375 0 L 29.515625 0 L 29.515625 29.03125 L 0.484375 29.03125 Z M 0.484375 0 " clip-rule="nonzero"/></clipPath></defs><g clip-path="url(#032286205a)"><path fill="#ffffff" d="M 26.019531 28.707031 L 3.980469 28.707031 C 2.226562 28.707031 0.808594 27.289062 0.808594 25.535156 L 0.808594 3.496094 C 0.808594 1.742188 2.226562 0.324219 3.980469 0.324219 L 26.027344 0.324219 C 27.773438 0.324219 29.191406 1.742188 29.191406 3.496094 L 29.191406 25.546875 C 29.191406 27.289062 27.773438 28.707031 26.019531 28.707031 Z M 26.019531 28.707031 " fill-opacity="1" fill-rule="nonzero"/></g><g clip-path="url(#8265d4d864)"><path fill="#000000" d="M 26.019531 29.03125 L 3.980469 29.03125 C 2.050781 29.03125 0.484375 27.46875 0.484375 25.535156 L 0.484375 3.496094 C 0.484375 1.566406 2.050781 0 3.980469 0 L 26.027344 0 C 27.949219 0 29.515625 1.566406 29.515625 3.496094 L 29.515625 25.546875 C 29.515625 27.46875 27.949219 29.03125 26.019531 29.03125 Z M 3.980469 0.648438 C 2.40625 0.648438 1.132812 1.921875 1.132812 3.496094 L 1.132812 25.546875 C 1.132812 27.109375 2.40625 28.382812 3.980469 28.382812 L 26.027344 28.382812 C 27.59375 28.382812 28.875 27.109375 28.875 25.535156 L 28.875 3.496094 C 28.875 1.929688 27.601562 0.648438 26.039062 0.648438 Z M 3.980469 0.648438 " fill-opacity="1" fill-rule="nonzero"/></g><path fill="#0c0b0b" d="M 24.773438 7.574219 C 24.773438 7.949219 24.699219 8.3125 24.554688 8.660156 C 24.410156 9.007812 24.207031 9.316406 23.941406 9.582031 C 23.675781 9.847656 23.367188 10.050781 23.019531 10.195312 C 22.671875 10.339844 22.308594 10.414062 21.933594 10.414062 C 21.558594 10.414062 21.195312 10.339844 20.847656 10.195312 C 20.5 10.050781 20.191406 9.847656 19.925781 9.582031 C 19.660156 9.316406 19.457031 9.007812 19.3125 8.660156 C 19.167969 8.3125 19.09375 7.949219 19.09375 7.574219 C 19.09375 7.199219 19.167969 6.835938 19.3125 6.488281 C 19.457031 6.140625 19.660156 5.832031 19.925781 5.566406 C 20.191406 5.300781 20.5 5.097656 20.847656 4.953125 C 21.195312 4.808594 21.558594 4.734375 21.933594 4.734375 C 22.308594 4.734375 22.671875 4.808594 23.019531 4.953125 C 23.367188 5.097656 23.675781 5.300781 23.941406 5.566406 C 24.207031 5.832031 24.410156 6.140625 24.554688 6.488281 C 24.699219 6.835938 24.773438 7.199219 24.773438 7.574219 Z M 24.773438 7.574219 " fill-opacity="1" fill-rule="nonzero"/><path fill="#0c0b0b" d="M 10.898438 21.449219 C 10.898438 21.828125 10.824219 22.1875 10.679688 22.535156 C 10.535156 22.882812 10.332031 23.191406 10.066406 23.457031 C 9.800781 23.722656 9.492188 23.929688 9.144531 24.070312 C 8.796875 24.214844 8.433594 24.289062 8.058594 24.289062 C 7.683594 24.289062 7.320312 24.214844 6.972656 24.070312 C 6.625 23.929688 6.316406 23.722656 6.050781 23.457031 C 5.785156 23.191406 5.578125 22.882812 5.4375 22.535156 C 5.292969 22.1875 5.21875 21.828125 5.21875 21.449219 C 5.21875 21.074219 5.292969 20.710938 5.4375 20.363281 C 5.578125 20.015625 5.785156 19.707031 6.050781 19.441406 C 6.316406 19.175781 6.625 18.972656 6.972656 18.828125 C 7.320312 18.683594 7.683594 18.613281 8.058594 18.613281 C 8.433594 18.613281 8.796875 18.683594 9.144531 18.828125 C 9.492188 18.972656 9.800781 19.175781 10.066406 19.441406 C 10.332031 19.707031 10.535156 20.015625 10.679688 20.363281 C 10.824219 20.710938 10.898438 21.074219 10.898438 21.449219 Z M 10.898438 21.449219 " fill-opacity="1" fill-rule="nonzero"/></svg>