<svg xmlns="http://www.w3.org/2000/svg" xmlns:xlink="http://www.w3.org/1999/xlink" width="40" zoomAndPan="magnify" viewBox="0 0 30 30.000001" height="40" preserveAspectRatio="xMidYMid meet" version="1.0"><defs><clipPath id="b33db0479f"><path d="M 0.484375 0 L 29.515625 0 L 29.515625 29 L 0.484375 29 Z M 0.484375 0 " clip-rule="nonzero"/></clipPath><clipPath id="cfb662aeda"><path d="M 0.484375 0 L 29.515625 0 L 29.515625 29.03125 L 0.484375 29.03125 Z M 0.484375 0 " clip-rule="nonzero"/></clipPath></defs><g clip-path="url(#b33db0479f)"><path fill="#ffffff" d="M 26.019531 28.707031 L 3.980469 28.707031 C 2.226562 28.707031 0.808594 27.289062 0.808594 25.535156 L 0.808594 3.496094 C 0.808594 1.742188 2.226562 0.324219 3.980469 0.324219 L 26.027344 0.324219 C 27.773438 0.324219 29.191406 1.742188 29.191406 3.496094 L 29.191406 25.546875 C 29.191406 27.289062 27.773438 28.707031 26.019531 28.707031 Z M 26.019531 28.707031 " fill-opacity="1" fill-rule="nonzero"/></g><g clip-path="url(#cfb662aeda)"><path fill="#000000" d="M 26.019531 29.03125 L 3.980469 29.03125 C 2.050781 29.03125 0.484375 27.46875 0.484375 25.535156 L 0.484375 3.496094 C 0.484375 1.566406 2.050781 0 3.980469 0 L 26.027344 0 C 27.949219 0 29.515625 1.566406 29.515625 3.496094 L 29.515625 25.546875 C 29.515625 27.46875 27.949219 29.03125 26.019531 29.03125 Z M 3.980469 0.648438 C 2.40625 0.648438 1.132812 1.921875 1.132812 3.496094 L 1.132812 25.546875 C 1.132812 27.109375 2.40625 28.382812 3.980469 28.382812 L 26.027344 28.382812 C 27.59375 28.382812 28.875 27.109375 28.875 25.535156 L 28.875 3.496094 C 28.875 1.929688 27.601562 0.648438 26.039062 0.648438 Z M 3.980469 0.648438 " fill-opacity="1" fill-rule="nonzero"/></g><path fill="#0c0b0b" d="M 17.839844 14.515625 C 17.839844 14.890625 17.765625 15.253906 17.621094 15.601562 C 17.476562 15.949219 17.273438 16.257812 17.007812 16.523438 C 16.742188 16.789062 16.433594 16.996094 16.085938 17.136719 C 15.738281 17.28125 15.375 17.355469 15 17.355469 C 14.625 17.355469 14.261719 17.28125 13.914062 17.136719 C 13.566406 16.996094 13.257812 16.789062 12.992188 16.523438 C 12.726562 16.257812 12.523438 15.949219 12.378906 15.601562 C 12.234375 15.253906 12.160156 14.890625 12.160156 14.515625 C 12.160156 14.140625 12.234375 13.777344 12.378906 13.429688 C 12.523438 13.082031 12.726562 12.773438 12.992188 12.507812 C 13.257812 12.242188 13.566406 12.039062 13.914062 11.894531 C 14.261719 11.75 14.625 11.679688 15 11.679688 C 15.375 11.679688 15.738281 11.75 16.085938 11.894531 C 16.433594 12.039062 16.742188 12.242188 17.007812 12.507812 C 17.273438 12.773438 17.476562 13.082031 17.621094 13.429688 C 17.765625 13.777344 17.839844 14.140625 17.839844 14.515625 Z M 17.839844 14.515625 " fill-opacity="1" fill-rule="nonzero"/></svg>