<svg xmlns="http://www.w3.org/2000/svg" xmlns:xlink="http://www.w3.org/1999/xlink" width="40" zoomAndPan="magnify" viewBox="0 0 30 30.000001" height="40" preserveAspectRatio="xMidYMid meet" version="1.0"><defs><clipPath id="6602ecf32d"><path d="M 0.484375 0 L 29.515625 0 L 29.515625 29 L 0.484375 29 Z M 0.484375 0 " clip-rule="nonzero"/></clipPath><clipPath id="8063f6492a"><path d="M 0.484375 0 L 29.515625 0 L 29.515625 29.03125 L 0.484375 29.03125 Z M 0.484375 0 " clip-rule="nonzero"/></clipPath></defs><g clip-path="url(#6602ecf32d)"><path fill="#ffffff" d="M 26.019531 28.707031 L 3.980469 28.707031 C 2.226562 28.707031 0.808594 27.289062 0.808594 25.535156 L 0.808594 3.496094 C 0.808594 1.742188 2.226562 0.324219 3.980469 0.324219 L 26.027344 0.324219 C 27.773438 0.324219 29.191406 1.742188 29.191406 3.496094 L 29.191406 25.546875 C 29.191406 27.289062 27.773438 28.707031 26.019531 28.707031 Z M 26.019531 28.707031 " fill-opacity="1" fill-rule="nonzero"/></g><g clip-path="url(#8063f6492a)"><path fill="#010101" d="M 26.019531 29.03125 L 3.980469 29.03125 C 2.050781 29.03125 0.484375 27.46875 0.484375 25.535156 L 0.484375 3.496094 C 0.484375 1.566406 2.050781 0 3.980469 0 L 26.027344 0 C 27.949219 0 29.515625 1.566406 29.515625 3.496094 L 29.515625 25.546875 C 29.515625 27.46875 27.949219 29.03125 26.019531 29.03125 Z M 3.980469 0.648438 C 2.40625 0.648438 1.132812 1.921875 1.132812 3.496094 L 1.132812 25.546875 C 1.132812 27.109375 2.40625 28.382812 3.980469 28.382812 L 26.027344 28.382812 C 27.59375 28.382812 28.875 27.109375 28.875 25.535156 L 28.875 3.496094 C 28.875 1.929688 27.601562 0.648438 26.039062 0.648438 Z M 3.980469 0.648438 " fill-opacity="1" fill-rule="nonzero"/></g><path fill="#0c0b0b" d="M 24.773438 7.574219 C 24.773438 6.007812 23.5 4.734375 21.933594 4.734375 C 20.367188 4.734375 19.09375 6.007812 19.09375 7.574219 C 19.09375 9.140625 20.367188 10.414062 21.933594 10.414062 C 23.5 10.414062 24.773438 9.148438 24.773438 7.574219 Z M 10.898438 21.449219 C 10.898438 19.882812 9.625 18.613281 8.058594 18.613281 C 6.492188 18.613281 5.21875 19.882812 5.21875 21.449219 C 5.21875 23.015625 6.492188 24.289062 8.058594 24.289062 C 9.625 24.289062 10.898438 23.023438 10.898438 21.449219 Z M 8.058594 10.414062 C 9.625 10.414062 10.898438 9.140625 10.898438 7.574219 C 10.898438 6.007812 9.625 4.734375 8.058594 4.734375 C 6.492188 4.734375 5.21875 6.007812 5.21875 7.574219 C 5.21875 9.140625 6.492188 10.414062 8.058594 10.414062 Z M 21.933594 24.289062 C 23.5 24.289062 24.773438 23.015625 24.773438 21.449219 C 24.773438 19.882812 23.5 18.613281 21.933594 18.613281 C 20.367188 18.613281 19.09375 19.882812 19.09375 21.449219 C 19.09375 23.015625 20.367188 24.289062 21.933594 24.289062 Z M 21.933594 24.289062 " fill-opacity="1" fill-rule="nonzero"/></svg>